<?xml version="1.0" encoding="utf-8"?>
<!-- Generator: Adobe Illustrator 26.1.0, SVG Export Plug-In . SVG Version: 6.00 Build 0)  -->
<svg version="1.1" id="Layer_1" xmlns="http://www.w3.org/2000/svg" xmlns:xlink="http://www.w3.org/1999/xlink" x="0px" y="0px"
	 viewBox="0 0 100 100" style="enable-background:new 0 0 100 100;" xml:space="preserve">
<style type="text/css">
	.st0{fill:#FBB03B;}
</style>
<path class="st0" d="M96.1,43.8l-12.8-3l12.4-6.3c1.1-0.6,2-1.7,2.4-3.1c0.5-1.6,0.3-3.3-0.5-4.6c-1.8-3-5.3-3.2-7.9-1.9
	c-1.5,0.7-3.1,1.3-4.7,1.8l-2.4,0.8l-0.1-3.1c0-0.2,0-0.4,0-0.6c-0.1-1.2-0.8-5.2-4.9-5.7c-2.6-0.3-5.7,1.2-6.2,3.9
	c-0.4,2-0.6,4-0.9,6l-0.2,1.5L66.7,30l-2.8-3.6c-1.3-1.8-2.7-3.5-4.1-5.2c-2-2.4-4.7-1.9-6.6-0.6c-2.3,1.6-3.9,4.7-2.3,7.4l1.8,3.1
	l-3.6-0.3c-6.8-0.5-13.4-1-20.1-0.7l-0.8,0L12.7,15.9c-2.9-2.7-6.4-1.6-8.4,0.6c-1.6,1.8-2.6,4.8,0.2,7.3l12.8,11.8v0.8
	c0,1.1,0,2.1-0.1,3.1c-0.1,2-0.1,4.1,0.1,6l0.1,1.2l-1,0.6c-4.8,3.2-9.5,6.4-13.9,9.5c-3.2,2.3-3.1,6.1-1.4,8.6
	c1.3,1.9,3.8,3.3,6.9,1.3c5.1-3.3,10.6-6.5,16.4-9.5l3.6-1.9l-0.9,4c-0.5,2.3-1.1,4.6-1.7,6.8c-1.1,3.7,1.3,5.9,3.6,6.6
	c2.7,0.8,6.1,0,7.3-3.7c0.8-2.5,1.9-5,3.2-7.5l3.5-6.8l0.1,9.3c0,1.2,0,2.4,0,3.6c-0.1,3.3,2.8,5.2,5.7,5.5c2.3,0.2,4.9-0.7,5.4-3.8
	c0.7-4.6,1.8-9.2,2.6-12.2l0.4-1.4l1.5,0c1.6,0,1.8,1.5,1.9,2.1l0.3,1.5l2.1,9.1c0.9,4,4.4,4,5.4,3.9c2.7-0.2,5.6-2.2,5.7-5.6L75,54
	l19.6,1c3.2,0.1,5-2.3,5.3-4.9C100.3,47.5,99.2,44.5,96.1,43.8z"/>
</svg>
